<?xml version="1.0" standalone="no"?>
<!DOCTYPE svg PUBLIC "-//W3C//DTD SVG 20010904//EN"
 "http://www.w3.org/TR/2001/REC-SVG-20010904/DTD/svg10.dtd">
<svg version="1.0" xmlns="http://www.w3.org/2000/svg"
 width="512.000000pt" height="512.000000pt" viewBox="0 0 512.000000 512.000000"
 preserveAspectRatio="xMidYMid meet">
<metadata>
Created by potrace 1.11, written by Peter Selinger 2001-2013
</metadata>
<g transform="translate(0.000000,512.000000) scale(0.100000,-0.100000)"
fill="#000000" stroke="none">
<path d="M2280 4876 c-91 -19 -174 -79 -231 -165 -14 -22 -18 -23 -50 -12 -61
20 -130 22 -193 6 -145 -37 -240 -151 -253 -303 l-6 -69 -55 -23 c-50 -21 -87
-52 -168 -142 -11 -13 -56 -50 -99 -83 -185 -141 -412 -400 -526 -601 -122
-214 -219 -469 -253 -664 -2 -14 -7 -36 -10 -50 -34 -149 -41 -591 -11 -683 2
-7 6 -30 9 -52 38 -294 194 -660 397 -930 641 -855 1797 -1116 2738 -618 190
100 339 211 502 373 285 282 477 611 574 987 129 494 78 1021 -141 1478 -32
67 -81 154 -147 260 -6 11 -45 63 -85 117 -119 158 -320 352 -472 455 -25 17
-56 44 -70 61 -33 39 -109 86 -163 101 -37 11 -42 16 -41 39 0 15 -5 50 -13
77 -42 147 -179 250 -330 247 -39 -1 -47 3 -84 43 -107 116 -298 138 -429 50
l-48 -32 -38 39 c-43 45 -113 83 -165 92 -74 13 -86 13 -139 2z"/>
</g>
</svg>
